<svg xmlns="http://www.w3.org/2000/svg" version="1.1" xmlns:xlink="http://www.w3.org/1999/xlink" xmlns:svgjs="http://svgjs.com/svgjs" width="1440" height="560" preserveAspectRatio="none" viewBox="0 0 1440 560">
    <g mask="url(&quot;#SvgjsMask1000&quot;)" fill="none">
        <rect width="1440" height="560" x="0" y="0" fill="#0e2a47"></rect>
        <path d="M1258.264978387696 270.6658760624234L1152.5925624040888 191.03599901382904 1072.9626853554944 296.70841499743614 1178.6351013391015 376.3382920460305z" fill="rgba(28, 83, 142, 0.4)" class="triangle-float1"></path>
        <path d="M196.0243109405087 242.16898059262428L89.03945147677632 185.28412177078 32.15459265493203 292.26898123451235 139.13945211866442 349.15384005635667z" fill="rgba(28, 83, 142, 0.4)" class="triangle-float3"></path>
        <path d="M1334.377317496175 115.41293861721911L1255.8645622886504 186.10614093504054 1326.557764606472 264.6188961425651 1405.0705198139965 193.9256938247437z" fill="rgba(28, 83, 142, 0.4)" class="triangle-float1"></path>
        <path d="M646.566,350.05C702.731,354.923,766.264,352.772,798.177,306.298C833.324,255.115,827.636,185.913,795.942,132.523C764.899,80.229,707.185,46.031,646.566,50.901C592.221,55.267,557.343,104.474,533.684,153.593C513.554,195.385,511.456,243.208,534.566,283.428C557.761,323.797,600.182,346.026,646.566,350.05" fill="rgba(28, 83, 142, 0.4)" class="triangle-float3"></path>
        <path d="M806.613,289.247C851.278,286.839,889.979,262.203,913.604,224.221C938.849,183.634,951.425,133.962,929.672,91.401C906.111,45.303,858.348,16.786,806.613,14.885C751.29,12.852,694.635,33.875,666.821,81.741C638.895,129.8,646.524,190.849,677.579,236.947C705.371,278.201,756.943,291.925,806.613,289.247" fill="rgba(28, 83, 142, 0.4)" class="triangle-float2"></path>
        <path d="M1358.535,276.229C1416.425,277.008,1472.548,246.324,1498.511,194.577C1522.418,146.928,1502.684,91.983,1473.292,47.507C1447.339,8.235,1405.603,-16.563,1358.535,-17.233C1310.205,-17.921,1264.082,3.479,1237.972,44.155C1209.54,88.448,1200.668,144.192,1224.932,190.898C1251.042,241.157,1301.904,275.467,1358.535,276.229" fill="rgba(28, 83, 142, 0.4)" class="triangle-float2"></path>
    </g>
    <defs>
        <mask id="SvgjsMask1000">
            <rect width="1440" height="560" fill="#ffffff"></rect>
        </mask>
        <style>
            @keyframes float1 {
                0%{transform: translate(0, 0)}
                50%{transform: translate(-10px, 0)}
                100%{transform: translate(0, 0)}
            }

            .triangle-float1 {
                animation: float1 5s infinite;
            }

            @keyframes float2 {
                0%{transform: translate(0, 0)}
                50%{transform: translate(-5px, -5px)}
                100%{transform: translate(0, 0)}
            }

            .triangle-float2 {
                animation: float2 4s infinite;
            }

            @keyframes float3 {
                0%{transform: translate(0, 0)}
                50%{transform: translate(0, -10px)}
                100%{transform: translate(0, 0)}
            }

            .triangle-float3 {
                animation: float3 6s infinite;
            }
        </style>
    </defs>
</svg>